<?xml version="1.0" encoding="UTF-8" standalone="no"?>
<svg
   xmlns:dc="http://purl.org/dc/elements/1.1/"
   xmlns:cc="http://creativecommons.org/ns#"
   xmlns:rdf="http://www.w3.org/1999/02/22-rdf-syntax-ns#"
   xmlns:svg="http://www.w3.org/2000/svg"
   xmlns="http://www.w3.org/2000/svg"
   id="svg8"
   version="1.1"
   viewBox="0 0 210 297"
   height="297mm"
   width="210mm">
  <defs
     id="defs2" />
  <metadata
     id="metadata5">
    <rdf:RDF>
      <cc:Work
         rdf:about="">
        <dc:format>image/svg+xml</dc:format>
        <dc:type
           rdf:resource="http://purl.org/dc/dcmitype/StillImage" />
        <dc:title></dc:title>
      </cc:Work>
    </rdf:RDF>
  </metadata>
  <g
     id="layer1">
    <path
       id="path3724"
       d="m 57.432745,191.35086 c -0.0164,-0.53079 1.800987,-5.52709 2.161813,-5.94312 0.168623,-0.19445 0.306586,-0.64389 0.306586,-0.99882 0,-0.35488 0.38405,-1.61916 0.853446,-2.80946 0.469392,-1.19031 1.438668,-3.83871 2.153941,-5.88535 1.820261,-5.20838 2.692688,-7.63543 3.21025,-8.93079 0.24532,-0.61398 0.726532,-1.9536 1.06936,-2.97692 0.342832,-1.02332 0.756386,-2.01965 0.919014,-2.21409 0.162629,-0.19442 0.295688,-0.72877 0.295688,-1.18741 0,-0.45866 0.138818,-0.92403 0.308484,-1.0342 0.169665,-0.11013 0.402443,-0.69378 0.517287,-1.29697 0.114832,-0.60318 0.549832,-1.90442 0.96665,-2.89165 0.931595,-2.20644 1.292099,-3.11818 1.518967,-3.84157 0.137127,-0.43723 0.181114,-0.41871 0.20302,0.0855 0.02614,0.6017 -0.682437,2.86861 -1.427196,4.56594 -0.373626,0.8515 -2.39701,6.69588 -2.705445,7.81443 -0.112867,0.40932 -0.299582,0.82797 -0.414917,0.93029 -0.115328,0.10242 -0.516154,1.19078 -0.890708,2.41876 -0.374551,1.22799 -0.81224,2.39177 -0.972643,2.58622 -0.160398,0.1944 -0.291637,0.58774 -0.291637,0.87404 0,0.28629 -0.219422,1.0482 -0.487607,1.69313 -0.945651,2.27406 -1.992055,5.18328 -1.992055,5.53833 0,0.1976 -0.255362,0.97066 -0.567475,1.71792 -0.853564,2.0436 -1.063016,2.60365 -2.108556,5.63797 -0.528908,1.53499 -1.099613,2.94996 -1.268233,3.14438 -0.168625,0.19443 -0.306586,0.70664 -0.306586,1.13827 0,0.7644 -1.029032,2.5898 -1.051448,1.86516 z m 28.768537,-5.1182 c 0.08204,-0.25852 1.004147,-0.59929 2.049145,-0.75727 4.074584,-0.61598 6.44726,-3.15289 7.289928,-7.79449 0.656132,-3.61412 0.670261,-42.35916 0.01722,-47.19083 -0.741001,-5.48236 -2.503818,-7.54492 -7.430774,-8.69425 -1.009226,-0.23542 -1.795116,-0.57288 -1.746426,-0.7499 0.06551,-0.23822 16.717025,-0.45075 19.429945,-0.24802 0.21431,0.0161 0.83021,1.15942 1.36868,2.5409 0.53845,1.38149 1.18595,3.01414 1.43888,3.62813 1.21399,2.94705 8.90706,23.03253 9.76307,25.48993 0.53469,1.53499 2.15413,5.72129 3.59875,9.3029 1.44463,3.58162 2.91649,7.31308 3.27082,8.29213 0.35429,0.97907 0.79222,1.72829 0.97314,1.66494 0.40762,-0.14274 0.86644,-1.24324 8.65041,-20.74843 4.43525,-11.11395 5.88024,-14.71085 6.50282,-16.18704 0.34527,-0.81865 0.98373,-2.40945 1.4188,-3.53509 0.43506,-1.12567 1.06405,-2.71645 1.39776,-3.53511 0.33371,-0.81865 1.06635,-2.66063 1.62809,-4.09328 0.56173,-1.43265 1.18605,-2.72943 1.38736,-2.88173 0.5703,-0.43147 18.44326,-0.16204 18.37027,0.27693 -0.0341,0.20466 -0.59196,0.50962 -1.23984,0.67768 -2.91063,0.75507 -3.87532,1.17175 -5.03246,2.1737 -1.56659,1.3565 -2.26161,2.82362 -2.68951,5.6773 -0.51834,3.4568 -0.54084,45.24911 -0.0259,48.21899 0.74424,4.29284 3.54829,7.21162 7.38697,7.6892 1.20874,0.15038 1.83979,0.40256 1.83979,0.73523 0,0.41882 -2.5153,0.50635 -14.55326,0.50635 -11.04661,0 -14.51959,-0.10612 -14.41355,-0.44027 0.0769,-0.24216 1.03001,-0.62702 2.11814,-0.85527 1.08816,-0.22824 2.63166,-0.86907 3.43001,-1.42407 1.46831,-1.02071 3.35576,-3.64712 3.43726,-4.783 0.0245,-0.34016 0.16941,-0.92624 0.32219,-1.3024 0.15279,-0.37617 0.24293,-1.14444 0.20029,-1.70728 -0.0427,-0.5628 0.0939,-1.02332 0.30341,-1.02332 0.20951,0 0.38093,-0.34478 0.38093,-0.76618 0,-0.42142 -0.1594,-0.6627 -0.35425,-0.53622 -0.23461,0.15234 -0.35423,-7.1762 -0.35423,-21.70429 0,-18.51974 0.0807,-22.09754 0.51802,-22.98311 0.28491,-0.57688 0.43987,-1.13093 0.34438,-1.23123 -0.35209,-0.36986 -1.48087,1.33188 -2.44332,3.68348 -1.39758,3.41487 -2.29282,5.59036 -2.83288,6.88414 -0.2563,0.614 -2.97598,7.31208 -6.04373,14.88464 -12.18934,30.08857 -13.46861,33.11832 -13.98377,33.11832 -0.52243,0 -0.99795,-1.10311 -10.50734,-24.37359 -5.09077,-12.45766 -11.10572,-27.06915 -12.208115,-29.65582 -0.36592,-0.85861 -0.665301,-1.90518 -0.665301,-2.32574 0,-1.03213 -0.645135,-0.97326 -0.897236,0.0819 -0.111247,0.46559 -0.142714,11.30809 -0.06995,24.09449 0.121392,21.33013 0.185652,23.40868 0.77888,25.19578 1.10648,3.33322 3.574682,5.44889 6.952572,5.95955 1.05301,0.1592 1.91454,0.45459 1.91454,0.65644 0,0.23083 -3.92132,0.40358 -10.569853,0.46561 -8.389783,0.0783 -10.539093,10e-4 -10.420709,-0.37142 z m 62.613478,-9.00811 c 0,-0.0903 -0.15941,-0.2676 -0.35424,-0.39409 -0.19483,-0.12644 -0.35423,-0.0527 -0.35423,0.16409 0,0.21674 0.1594,0.39406 0.35423,0.39406 0.19483,0 0.35424,-0.0739 0.35424,-0.16406 z m 3.0685,-4.02223 c -0.0984,-0.25583 -0.17868,-0.0465 -0.17868,0.46515 0,0.51164 0.0805,0.72098 0.17868,0.46513 0.0983,-0.25581 0.0983,-0.67444 0,-0.93028 z m -2.71426,0.46515 c 0,-0.20467 -0.16882,-0.37211 -0.37516,-0.37211 -0.20632,0 -0.27662,0.16744 -0.1562,0.37211 0.12036,0.20465 0.28922,0.37211 0.37514,0.37211 0.086,0 0.15622,-0.16746 0.15622,-0.37211 z m 2.26691,-3.87054 c -0.10485,-0.28683 -0.48876,-0.60345 -0.8533,-0.70359 -0.57149,-0.15699 -0.60518,-0.085 -0.24453,0.52151 0.48256,0.8117 1.38234,0.96092 1.09783,0.18208 z m 1.98394,-1.33909 c 0,-0.20466 -0.16882,-0.3721 -0.37514,-0.3721 -0.20634,0 -0.27665,0.16744 -0.15622,0.3721 0.12035,0.20467 0.28922,0.37212 0.37515,0.37212 0.086,0 0.15621,-0.16745 0.15621,-0.37212 z m -4.71734,-38.3977 c -0.11317,-0.29686 -0.19704,-0.20867 -0.21402,0.22481 -0.0155,0.39228 0.0683,0.61206 0.18605,0.48842 0.11765,-0.12364 0.13026,-0.44462 0.028,-0.71323 z m -51.966092,-2.25596 c 0.003,-0.1535 -0.153982,-0.27908 -0.348813,-0.27908 -0.194831,0 -0.351796,0.37678 -0.348814,0.83727 0.0043,0.67702 0.07112,0.73044 0.348814,0.27909 0.188865,-0.30701 0.345833,-0.68378 0.348813,-0.83728 z m -24.7912,22.62356 c 0,-0.0926 0.179256,-0.63693 0.398342,-1.20938 0.21909,-0.57245 0.52625,-1.37572 0.682575,-1.78507 0.156326,-0.40932 0.363005,-0.9954 0.459283,-1.30239 0.0974,-0.31059 0.186492,-0.14553 0.200838,0.37211 0.01417,0.51165 -0.212343,1.40993 -0.50339,1.99614 -0.291044,0.58623 -0.529174,1.29791 -0.529174,1.58148 0,0.28362 -0.159406,0.51565 -0.354236,0.51565 -0.194831,0 -0.354238,-0.0757 -0.354238,-0.16854 z m 2.153392,-5.29593 c -0.03851,-1.1198 0.71572,-3.04848 0.941014,-2.40629 0.09684,0.276 0.0097,0.8621 -0.193439,1.3024 -0.203225,0.44031 -0.448276,1.05176 -0.544554,1.35874 -0.110871,0.35353 -0.185309,0.26006 -0.203021,-0.25485 z m 1.034747,-3.74203 c 0,-0.38047 0.126868,-0.85084 0.281921,-1.04529 0.155058,-0.19442 0.492217,-1.0233 0.749245,-1.84198 0.482389,-1.53644 1.298047,-3.66456 1.787468,-4.66365 0.153679,-0.31371 0.391652,-1.10719 0.528831,-1.7633 0.263078,-1.25823 0.903385,-2.00904 0.903385,-1.05926 0,0.30697 -0.159408,0.66165 -0.354238,0.78813 -0.194832,0.12644 -0.354239,0.62885 -0.354239,1.11636 0,0.48749 -0.147142,0.98189 -0.326981,1.09863 -0.179844,0.11675 -0.439223,0.7491 -0.576402,1.4052 -0.13718,0.65609 -0.413442,1.53329 -0.613915,1.94934 -0.730654,1.51631 -0.876839,1.91906 -1.121694,3.09012 -0.281218,1.345 -0.903381,1.98251 -0.903381,0.9257 z m -31.635586,-6.2882 c -0.426808,-0.44836 0.150295,-0.87839 1.178777,-0.87839 1.462614,0 4.609584,-1.31454 5.701823,-2.38177 1.433246,-1.4004 2.402517,-3.28371 2.818976,-5.47733 0.456682,-2.40548 0.444695,-47.059668 -0.01354,-50.465216 -0.165109,-1.227053 -0.57804,-2.797624 -0.917626,-3.490161 -1.186704,-2.42011 -3.868453,-4.239426 -6.931726,-4.702525 -1.010663,-0.152786 -1.852815,-0.445248 -1.871462,-0.649912 -0.04803,-0.527283 28.196719,-0.687267 33.795779,-0.191427 5.198039,0.460331 7.259767,0.977929 10.323274,2.59167 4.156714,2.189602 7.853665,7.431311 7.820983,11.088959 -0.0077,0.86982 0.121836,1.581492 0.288012,1.581492 0.486659,0 1.405032,-1.586445 1.405032,-2.427131 0,-0.425187 0.143932,-0.932146 0.319854,-1.126577 0.175918,-0.194429 0.409746,-0.688414 0.519617,-1.097741 0.109872,-0.409328 0.122358,-0.02523 0.02774,0.853512 -0.09463,0.878762 -0.317083,1.883474 -0.494353,2.232695 -0.277755,0.547169 -1.208759,3.118471 -5.417163,14.961414 -0.400002,1.125641 -0.925966,2.548988 -1.168811,3.16299 -0.689193,1.742518 -0.970078,2.559808 -1.081731,3.147508 -0.05671,0.29847 -0.37053,1.21946 -0.69738,2.04664 -0.728068,1.84252 -0.8845,2.27288 -2.102191,5.78327 -1.242004,3.58046 -3.302157,9.27245 -3.703788,10.23319 -0.171117,0.40932 -0.59593,1.66521 -0.944029,2.79086 -0.348094,1.12565 -0.760146,2.2057 -0.915667,2.40013 -0.155526,0.19444 -0.282771,0.65494 -0.282771,1.02334 0,0.36839 -0.159406,0.66981 -0.354237,0.66981 -0.19483,0 -0.354236,0.32398 -0.354236,0.72 0,1.09181 -0.760534,2.90743 -0.968983,2.31325 -0.09683,-0.27602 -0.01087,-0.86209 0.190939,-1.3024 0.201851,-0.44032 0.799739,-2.05645 1.32865,-3.59144 0.528907,-1.53498 1.099611,-2.94994 1.268232,-3.14439 0.795214,-0.91692 0.243463,-3.05923 -1.865712,-7.2441 -3.576559,-7.09631 -6.534247,-10.91039 -9.468102,-12.20958 -0.726262,-0.32161 -2.449452,-0.59019 -3.94605,-0.61506 l -2.656781,-0.0441 v 12.83802 12.83798 l 0.968988,1.93054 c 0.532948,1.06178 1.489387,2.34232 2.125424,2.84564 1.356015,1.07304 4.103819,2.10797 5.596788,2.10797 0.697469,0 1.050331,0.18751 1.050331,0.55817 0,0.48747 -1.922069,0.55818 -15.173171,0.55818 -8.345247,0 -15.275113,-0.10708 -15.399702,-0.23798 z m 44.618151,-30.18252 c 0.221629,-0.56282 0.831247,-2.27922 1.354708,-3.81418 0.52346,-1.534984 1.125178,-3.167399 1.33715,-3.627576 0.600671,-1.30401 0.148084,-1.333221 -1.725172,-0.111359 -1.856423,1.210871 -5.344822,2.622599 -6.480509,2.622599 -0.775058,0 -1.436245,0.809916 -0.833489,1.020976 1.12002,0.39218 3.801725,2.60343 4.467586,3.68382 0.931256,1.51104 1.353627,1.56176 1.879726,0.22574 z m -17.01534,-4.55665 c 1.776001,-0.1966 3.956898,-0.685168 4.846439,-1.085714 1.783794,-0.803223 5.041309,-3.955848 6.185405,-5.986249 2.82092,-5.006238 2.960335,-11.946312 0.347591,-17.30339 -2.810669,-5.7629 -6.892161,-7.983167 -14.697089,-7.99499 l -3.630935,-0.0055 v 16.3731 16.373093 l 1.859748,-0.007 c 1.022859,-0.003 3.312839,-0.16731 5.088841,-0.36391 z m 27.44042,-24.133055 c -0.01538,-0.48073 0.195472,-1.401716 0.468571,-2.046639 0.273085,-0.644921 0.929577,-2.428476 1.458867,-3.963454 1.28547,-3.727993 1.41393,-4.068543 2.10537,-5.581738 l 0.59512,-1.302405 -0.19326,1.207192 c -0.1063,0.663959 -0.51623,1.909438 -0.91098,2.767734 -0.39477,0.8583 -0.71777,1.782539 -0.71777,2.053871 0,0.271329 -0.14303,0.784097 -0.31787,1.139481 -0.17482,0.355386 -0.59242,1.39969 -0.92799,2.320676 -0.335574,0.920986 -0.738795,2.009426 -0.896056,2.418754 -0.157261,0.409326 -0.364703,0.995409 -0.460993,1.302404 -0.103639,0.330569 -0.186449,0.201766 -0.203009,-0.315876 z"
       style="fill:#000000;stroke-width:0.36306661" />
  </g>
</svg>
