<?xml version="1.0" encoding="UTF-8" standalone="no"?>
<svg
   xmlns:dc="http://purl.org/dc/elements/1.1/"
   xmlns:cc="http://creativecommons.org/ns#"
   xmlns:rdf="http://www.w3.org/1999/02/22-rdf-syntax-ns#"
   xmlns:svg="http://www.w3.org/2000/svg"
   xmlns="http://www.w3.org/2000/svg"
   id="svg8"
   version="1.1"
   viewBox="0 0 210 297"
   height="297mm"
   width="210mm">
  <defs
     id="defs2" />
  <metadata
     id="metadata5">
    <rdf:RDF>
      <cc:Work
         rdf:about="">
        <dc:format>image/svg+xml</dc:format>
        <dc:type
           rdf:resource="http://purl.org/dc/dcmitype/StillImage" />
        <dc:title></dc:title>
      </cc:Work>
    </rdf:RDF>
  </metadata>
  <g
     id="layer1">
    <path
       style="stroke-width:0.26458332;fill:#ac9393"
       d="m 30.907799,60.030791 c 1.580822,1.595231 2.955446,3.374284 3.990607,5.367525 0.732581,1.63186 1.286989,3.314742 1.599282,5.074793 0.228066,1.531427 0.240067,3.082681 0.251389,4.627522 0.06367,1.760258 -0.05649,3.494175 -0.319842,5.232628 -0.148508,1.584904 -0.534358,3.126168 -0.836454,4.684498 -0.163147,1.52659 -0.503557,3.020973 -0.778004,4.529056 -0.474612,1.7761 -1.107136,3.487838 -1.559809,5.276167 -0.429649,1.810483 -0.769948,3.634137 -1.53443,5.34001 -0.461446,1.03534 -0.910674,2.07565 -1.470927,3.06194 0,0 -10.23766,4.57435 -10.23766,4.57435 v 0 c 0.542282,-0.98273 1.149029,-1.92238 1.512505,-2.9972 0.825797,-1.65071 1.416455,-3.33752 1.68099,-5.182432 0.274918,-0.990695 0.411969,-2.026653 0.722208,-3.005222 0.240981,-0.760116 0.352058,-0.710512 0.624125,-1.440564 0.08664,-0.232489 0.139394,-0.476236 0.209091,-0.714354 0.237618,-1.521375 0.666733,-3.000965 0.773743,-4.54085 0.261733,-1.564251 0.730907,-3.080819 0.859342,-4.66607 0.270134,-1.686152 0.530346,-3.348966 0.385185,-5.06621 -0.0028,-1.492729 0.003,-2.990233 -0.16565,-4.475612 -0.24159,-1.665359 -0.738323,-3.245456 -1.391756,-4.796433 -0.924169,-1.879563 -2.20308,-3.568694 -3.820522,-4.912204 0,0 9.506587,-5.971338 9.506587,-5.971338 z"
       id="path22" />
    <path
       style="stroke-width:0.26458332;fill:#0000ff"
       d="m 31.12258,61.668352 c 3.415583,-1.578954 6.721488,-3.389632 10.189085,-4.853844 2.39671,-0.909389 4.880552,-1.823112 7.472924,-1.754283 2.360475,0.319744 4.225628,1.733717 5.967304,3.253261 1.51081,1.696458 2.744292,3.676909 3.298407,5.890673 0.252925,2.144926 -0.964362,3.889126 -2.189877,5.520197 -1.256657,1.580494 -2.655777,3.032215 -4.13281,4.40598 -4.350772,3.716739 -9.530025,6.331114 -14.555592,9.002328 -0.24607,0.103241 -0.492143,0.206481 -0.738214,0.309722 -0.249375,0.07755 -0.506754,0.132947 -0.748122,0.232664 -0.214297,0.08853 -0.813769,0.444791 -0.612609,0.329485 3.066434,-1.750428 6.132865,-3.500858 9.199295,-5.251288 -0.302373,0.06309 -0.191852,0.102174 -0.351427,0.01349 2.024488,0.918523 3.341719,1.96341 4.781809,3.665689 1.632122,2.192866 2.548245,4.803515 3.26875,7.415019 0.172011,0.623469 0.383323,1.241764 0.46836,1.88291 0.09772,0.736767 0.05128,1.485553 0.07692,2.228331 -0.0098,2.806483 -1.068096,5.497896 -1.213834,8.284124 -0.08116,1.55166 0.104328,1.99291 0.40754,3.48001 0.842267,2.35868 2.35054,4.47425 4.424714,5.89517 0.229487,0.10563 0.458976,0.21127 0.688462,0.3169 0,0 -9.357738,6.1145 -9.357738,6.1145 v 0 c -0.254802,-0.15608 -0.509603,-0.31217 -0.764405,-0.46825 -2.138799,-1.75035 -3.751876,-4.05726 -4.676701,-6.6662 -0.315246,-1.44336 -0.593677,-2.31771 -0.555985,-3.82539 0.06883,-2.75316 1.22977,-5.39621 1.321702,-8.151789 -0.0011,-0.668054 0.0679,-1.339935 -0.0035,-2.004161 -0.06737,-0.626467 -0.253666,-1.234871 -0.410403,-1.845146 -0.635415,-2.474102 -1.521666,-4.91278 -3.112682,-6.94306 -0.887315,-0.930151 -0.952268,-1.117862 -1.965974,-1.778231 -1.081743,-0.704688 -2.382419,-1.097592 -3.219952,-2.136838 -0.123132,-0.276318 -0.309589,-0.532413 -0.36939,-0.828953 -0.03839,-0.190383 -0.07845,-0.472961 0.08601,-0.576265 4.442579,-2.790558 7.79866,-4.763987 12.08867,-6.699721 3.649522,-1.962417 1.728756,-0.940165 -8.091416,4.74789 -0.27106,0.157006 0.539922,-0.318588 0.799245,-0.494305 0.975487,-0.660982 1.957076,-1.3183 2.880379,-2.051775 1.464244,-1.325796 2.823869,-2.722026 4.136522,-4.19354 1.089557,-1.412256 2.474103,-2.782769 2.600227,-4.655799 -0.321656,-2.009243 -1.530789,-3.803057 -2.87343,-5.289306 -1.610998,-1.336292 -3.358764,-2.551867 -5.537142,-2.552349 -2.480942,0.248783 -4.854443,1.044263 -7.140086,2.022325 -3.455995,1.531085 -6.813446,3.279058 -10.205216,4.945168 0,0 8.670199,-6.935338 8.670199,-6.935338 z"
       id="path24" />
    <path
       style="stroke-width:0.26458332;fill:#aa8800"
       d="m 52.794892,48.019213 c 2.463194,0.11512 4.936098,-0.08917 7.390532,0.156069 2.231749,0.135883 3.198024,0.882116 4.601384,2.475013 1.037902,1.366176 1.197576,3.132905 1.529165,4.765646 0.364675,1.725613 0.523729,3.481285 0.610984,5.239668 0.04212,1.747608 0.04523,3.495845 0.04838,5.243862 -0.02796,1.411385 -0.07491,2.799614 0.353319,4.156842 0.527465,1.124157 1.394142,1.747068 2.475365,2.283423 1.453081,0.569632 3.040382,0.583912 4.579747,0.634984 1.871432,-0.132418 3.567562,-0.829611 5.216488,-1.679805 3.828076,-2.410169 -0.870638,0.56378 -7.903684,4.483881 -0.502049,0.279831 0.9032,-0.714285 1.315593,-1.114648 0,0 10.289895,-4.348358 10.289895,-4.348358 v 0 c -2.962984,4.011755 -8.073742,5.636347 -12.429906,7.922527 -1.776441,0.747604 -3.597724,1.36058 -5.557268,1.258277 -1.674432,-0.106696 -3.385212,-0.224925 -4.89444,-1.032301 -1.262906,-0.748335 -2.276761,-1.62981 -2.905469,-2.992179 -0.534056,-1.463153 -0.576696,-2.952083 -0.499814,-4.498969 0.0067,-1.733092 0.0217,-3.466812 -0.03114,-5.19937 -0.05647,-1.7068 -0.163727,-3.415572 -0.503571,-5.093316 -0.295828,-1.430348 -0.420714,-3.023103 -1.287031,-4.236487 -1.226256,-1.401207 -2.159974,-1.69291 -4.047336,-1.807454 -2.471862,-0.132966 -4.950952,-0.05364 -7.425032,-0.02477 0,0 9.073836,-6.592527 9.073836,-6.592527 z"
       id="path26" />
    <path
       style="stroke-width:0.26458332;fill:#d45500"
       d="m 88.710848,51.074174 c -1.25009,1.475475 -1.982494,3.282648 -2.823358,5.002207 -0.681672,1.212929 -1.163608,2.5209 -1.683184,3.807891 -0.361098,1.490761 -0.854913,2.936148 -1.327324,4.395552 -0.493745,1.543836 -0.657159,3.1539 -0.746401,4.763381 -0.08464,1.530096 -0.0803,3.048722 0.121423,4.567465 0.280895,1.741824 0.453644,3.496191 0.524351,5.258387 0.02848,1.970609 0.124508,3.945959 -0.01045,5.913488 -0.158276,2.036575 -0.610994,4.020825 -1.201954,5.970355 -0.547233,1.603568 -1.119032,3.222236 -2.309889,4.459753 -5.342999,3.639804 -7.49122,5.827417 -12.495991,6.241217 0,0 8.966796,-6.698772 8.966796,-6.698772 v 0 c 3.978671,-0.750435 9.256164,-5.017891 -6.871132,4.606764 1.687381,-0.903764 1.894406,-2.183183 2.627726,-3.849981 0.604205,-1.883185 1.149077,-3.775954 1.308832,-5.759696 0.220557,-1.9152 0.07704,-3.849807 0.05966,-5.774 -0.07229,-1.723006 -0.180539,-3.446351 -0.476274,-5.148114 -0.262538,-1.582385 -0.341125,-3.149751 -0.234646,-4.755396 0.06701,-1.690394 0.190876,-3.38605 0.643668,-5.024519 0.428927,-1.476164 1.056481,-2.885845 1.258205,-4.419045 0.4318,-1.369554 1.06031,-2.68347 1.660281,-3.984288 0.991518,-1.668389 1.58509,-3.550677 2.685984,-5.161987 0,0 10.323669,-4.410662 10.323669,-4.410662 z"
       id="path28" />
    <path
       style="stroke-width:0.26458332;fill:#c83737"
       d="m 91.436393,61.18017 c 2.402154,0.938223 3.788211,3.020208 4.805172,5.273704 0.992528,2.291953 1.400317,4.732292 1.621252,7.200421 0.129757,1.737952 0.127913,3.481646 0.124826,5.223277 -0.0742,2.098005 0.02262,4.199895 -0.107151,6.295133 -0.242867,1.840008 -0.467474,3.677894 -0.580713,5.530974 0.01085,2.069902 -0.321535,4.09697 -0.825847,6.098083 -0.590449,1.813305 -1.097759,3.642068 -1.361466,5.532008 -0.09501,0.75658 -0.124267,1.51844 -0.154535,2.27953 0,0 -9.987307,5.04735 -9.987307,5.04735 v 0 c 0.02096,-0.79295 0.04061,-1.58653 0.118232,-2.37657 0.220898,-1.95799 0.670973,-3.86569 1.357408,-5.71623 0.599016,-1.89618 0.862507,-3.865315 0.876075,-5.853335 0.103579,-1.866855 0.257434,-3.731107 0.585083,-5.573956 0.25208,-2.050717 0.07947,-4.126931 0.110432,-6.189218 0.01368,-1.722459 0.03975,-3.446132 -0.03626,-5.167601 -0.145732,-2.351249 -0.458168,-4.691383 -1.381812,-6.881868 -0.937874,-2.000687 -2.131613,-3.821073 -4.413081,-4.387009 0,0 9.249696,-6.334693 9.249696,-6.334693 z"
       id="path30" />
    <path
       style="stroke-width:0.26458332;fill:#800080"
       d="m 96.569262,68.884177 c 4.235958,-3.536561 9.283168,-7.661039 14.715278,-8.339095 1.72812,-0.06887 3.058,1.178515 4.20447,2.326421 1.20529,1.307314 2.00954,2.813333 2.4971,4.510828 0.29446,1.688057 0.57885,3.381595 0.82364,5.078711 0.2455,1.724425 0.28951,3.465142 0.29829,5.203807 0.0133,2.027602 0.007,4.05521 0.0138,6.082847 0.1653,1.964669 -0.22122,3.822182 -0.81876,5.678816 -0.54272,1.834136 -1.48474,3.504996 -2.14937,5.291396 -0.52042,1.71917 -0.88199,3.483949 -1.46375,5.183796 -0.0738,0.218696 -0.14754,0.437396 -0.22132,0.656096 0,0 -10.13323,4.7732 -10.13323,4.7732 v 0 c 0.0704,-0.23107 0.14082,-0.46214 0.21124,-0.69321 0.63232,-1.68772 1.11622,-3.41814 1.52119,-5.177429 0.53349,-1.852441 1.51783,-3.49282 2.15105,-5.30402 0.62323,-1.745776 1.13901,-3.466629 0.9651,-5.346491 0.0115,-2.024033 0.0158,-4.048101 -0.002,-6.072113 -0.0336,-1.692238 -0.0571,-3.388455 -0.2531,-5.071621 -0.21475,-1.65681 -0.56048,-3.289355 -0.77412,-4.945015 -0.3789,-1.528733 -1.08053,-2.853372 -2.18822,-3.992274 -1.03301,-0.961257 -2.09244,-1.814824 -3.58771,-1.421138 -3.594714,1.157253 -8.520763,4.70657 7.03235,-4.405788 0.21212,-0.124278 -0.72857,0.322945 -1.78031,1.112858 -0.24211,0.18184 -0.4673,0.385178 -0.70095,0.577766 0,0 -10.360962,4.291652 -10.360962,4.291652 z"
       id="path32" />
    <path
       style="stroke-width:0.26458332;fill:#00ffff"
       d="m 116.95108,69.675289 c 4.34879,-3.751757 9.17004,-6.050552 14.2852,-8.980074 1.50374,-0.540472 3.10648,-0.57662 4.68526,-0.603189 2.16999,0.288599 2.74361,1.01102 3.61594,2.974234 0.51143,1.490654 1.02056,2.965368 1.29177,4.520975 0.3688,1.465209 0.66472,2.938163 0.83139,4.440108 0.15435,1.867691 0.54051,3.695342 0.58876,5.571976 0.0679,2.504012 -0.93269,4.7947 -1.86337,7.062576 -1.03677,2.206818 -2.04388,4.426744 -3.16893,6.590435 -0.83844,1.837095 -1.94692,3.531542 -2.85213,5.332534 -0.56948,1.739072 -1.47081,3.316126 -2.34086,4.915036 -0.65665,1.2201 -0.31325,0.62215 -1.02933,1.79434 0,0 -10.2031,4.4781 -10.2031,4.4781 v 0 c 0.75902,-1.09604 0.39493,-0.5328 1.09083,-1.69065 0.76519,-1.62282 1.86532,-3.09463 2.31357,-4.85779 0.80578,-1.898133 2.06787,-3.543902 2.91623,-5.422475 1.12861,-2.141329 2.08896,-4.35632 3.20713,-6.499955 0.89654,-2.132934 1.96138,-4.285681 2.01421,-6.643889 0.0345,-1.847413 -0.42385,-3.619838 -0.59383,-5.448805 -0.1346,-1.484413 -0.38699,-2.946802 -0.80779,-4.379373 -0.21307,-1.477264 -0.67743,-2.86916 -1.13234,-4.286255 -0.65173,-1.532043 -1.23578,-1.870276 -2.90932,-1.840145 -1.50852,0.08328 -3.02023,0.240114 -4.37141,0.978805 16.79979,-9.799429 8.2182,-5.252244 4.85087,-2.187642 0,0 -10.41875,4.181123 -10.41875,4.181123 z"
       id="path34" />
    <path
       style="stroke-width:0.26458332;fill:#ff0000"
       d="m 22.461361,107.43514 c 3.745807,-0.78558 7.35101,-2.07198 11.047514,-3.0408 2.846602,-0.6925 5.751267,-1.09178 8.628272,-1.63476 2.720922,-0.43019 5.432121,-0.90013 8.148317,-1.3609 2.621431,-0.41491 5.282009,-0.43758 7.924406,-0.27632 3.511079,0.2602 7.026235,0.44989 10.545556,0.54623 3.06316,0.0774 6.127318,0.0845 9.191228,0.0689 2.083324,0.13502 4.127113,0.49821 6.169311,0.89933 2.602727,0.8836 5.28883,1.47935 8.00767,1.86089 2.145411,0.37603 4.260524,0.87502 6.39374,1.30943 1.915775,0.36777 3.804265,0.87544 5.711365,1.29457 2.05118,0.44279 4.14409,0.56912 6.23476,0.642 4.21304,0.085 8.42724,0.12712 12.64111,0.13536 4.08089,0.009 8.16119,-0.0698 12.24182,-0.0972 2.871,0.0917 5.72261,-0.27563 8.58216,-0.47754 2.98058,-0.0654 5.91656,-0.52236 8.85247,-0.99718 2.73374,-0.41112 5.42885,-1.0175 8.17515,-1.35943 1.97661,-0.36286 3.88327,-0.90498 5.78838,-1.53031 1.91586,-0.99278 4.031,-1.53877 5.93027,-2.55061 1.46586,-0.61381 2.90366,-1.342952 4.42101,-1.821306 0.20475,-0.09591 0.40949,-0.191815 0.61424,-0.287721 -0.33848,0.324022 1.7325,-0.814025 1.31708,-0.575387 -15.58906,8.954994 -11.03419,6.485824 -7.79049,4.335834 0,0 10.41495,-4.107485 10.41495,-4.107485 v 0 c -4.09485,3.076925 -8.58988,5.730745 -13.38839,7.538405 -1.43976,0.60616 -2.90497,1.1516 -4.30008,1.85944 -1.98981,0.84259 -4.00027,1.64687 -6.01379,2.4278 -1.93069,0.61099 -3.90076,1.07833 -5.90708,1.3657 -2.70622,0.36835 -5.37555,0.94469 -8.0793,1.3291 -2.95547,0.4725 -5.92058,0.83408 -8.9156,0.92508 -2.88384,0.21729 -5.7625,0.55102 -8.66045,0.4358 -3.9989,-0.0229 -7.99753,-0.0947 -11.99665,-0.0812 -4.31369,0.0115 -8.62773,0.10306 -12.94125,0.0311 -2.13985,-0.0844 -4.266936,-0.31445 -6.356732,-0.80182 -1.909609,-0.42601 -3.814797,-0.87244 -5.7297,-1.27297 -2.101863,-0.47408 -4.209275,-0.91024 -6.332371,-1.2805 -2.715466,-0.487 -5.370123,-1.21568 -8.046675,-1.87548 -1.981991,-0.37056 -3.983698,-0.67649 -6.000435,-0.76377 -3.058874,-0.0267 -6.118317,-0.0293 -9.176072,-0.12404 -3.507425,-0.14369 -7.008527,-0.38285 -10.513507,-0.57345 -2.636793,-0.0351 -5.280523,0.0702 -7.883451,0.52745 -2.696337,0.45621 -5.402225,0.84782 -8.091421,1.34384 -2.836813,0.53482 -5.704742,0.9185 -8.50254,1.64331 -3.757106,1.02949 -7.475551,2.19781 -11.237759,3.21004 0,0 8.882964,-6.83945 8.882964,-6.83945 z"
       id="path36" />
    <path
       style="stroke-width:0.26458332;fill:#d40000"
       d="m 154.10252,53.423565 c 1.25006,1.931395 2.34249,3.967343 3.14872,6.122392 0.71525,2.233459 1.30153,4.502709 1.67038,6.818837 0.27046,1.989105 0.35167,3.994451 0.0176,5.976456 -0.60568,2.172459 -1.2652,4.313232 -1.65044,6.539875 -0.24732,2.180323 -0.76477,4.316058 -1.3186,6.435246 -0.64804,2.243114 -0.99739,4.552252 -1.19788,6.873711 -0.11925,1.614421 -0.12084,3.234047 -0.1216,4.851874 0.012,1.408295 -0.0769,2.81247 0.18523,4.201584 0.24914,1.09823 0.89061,1.78146 1.86795,2.27164 0,0 -9.40658,6.08426 -9.40658,6.08426 v 0 c -1.12577,-0.77178 -1.9697,-1.7239 -2.35064,-3.06778 -0.30906,-1.46082 -0.29673,-2.9191 -0.26689,-4.40958 7e-5,-1.652 -5.3e-4,-3.305755 0.11581,-4.954606 0.1993,-2.386423 0.56526,-4.753512 1.14794,-7.078604 0.60485,-2.066708 1.05989,-4.189804 1.35342,-6.322198 0.35733,-2.238721 0.88949,-4.425844 1.60936,-6.576991 0.49189,-1.849647 0.34847,-3.731001 0.15451,-5.621592 -0.28998,-2.260414 -0.82416,-4.465269 -1.50425,-6.640327 -0.75161,-2.043189 -1.79105,-3.995147 -3.09048,-5.744696 0,0 9.63641,-5.759501 9.63641,-5.759501 z"
       id="path38" />
    <path
       style="stroke-width:0.26458332;fill:#800080"
       d="m 157.15185,101.60817 c 0.94666,0.84323 0.44352,0.43042 1.51511,1.23142 0,0 -9.40638,5.95427 -9.40638,5.95427 v 0 c -1.12558,-0.83441 -0.58761,-0.429 -1.61532,-1.21435 0,0 9.50659,-5.97134 9.50659,-5.97134 z"
       id="path40" />
  </g>
</svg>
